<?xml version="1.0" standalone="no"?>
<!DOCTYPE svg PUBLIC "-//W3C//DTD SVG 20010904//EN" "http://www.w3.org/TR/2001/REC-SVG-20010904/DTD/svg10.dtd">
<!-- Created using Krita: http://krita.org -->
<svg xmlns="http://www.w3.org/2000/svg" 
    xmlns:xlink="http://www.w3.org/1999/xlink"
    xmlns:krita="http://krita.org/namespaces/svg/krita"
    xmlns:sodipodi="http://sodipodi.sourceforge.net/DTD/sodipodi-0.dtd"
    width="28.08pt"
    height="15.12pt"
    viewBox="0 0 28.08 15.12">
<defs/>
<ellipse id="shape0" transform="translate(13.32, 13.2463782496561)" rx="0.720000000000001" ry="0.72" cx="0.720000000000001" cy="0.72" fill="#b74100" fill-rule="evenodd" stroke="#b74100" stroke-width="0.72" stroke-linecap="square" stroke-linejoin="bevel"/><ellipse id="shape0" transform="matrix(0.999999987608374 0 0 0.999999975397958 4.5956166153406 9.09923651860649)" rx="0.720000000000001" ry="0.72" cx="0.720000000000001" cy="0.72" fill="#b74100" fill-rule="evenodd" stroke="#b74100" stroke-width="0.72" stroke-linecap="square" stroke-linejoin="bevel"/><ellipse id="shape01" transform="matrix(0.999999987608374 0 0 0.999999975397958 10.2224102094378 11.8732935089003)" rx="0.720000000000001" ry="0.72" cx="0.720000000000001" cy="0.72" fill="#b74100" fill-rule="evenodd" stroke="#b74100" stroke-width="0.72" stroke-linecap="square" stroke-linejoin="bevel"/><ellipse id="shape02" transform="matrix(0.999999987608374 0 0 0.999999975397958 7.54331065344477 10.3619327796195)" rx="0.720000000000001" ry="0.72" cx="0.720000000000001" cy="0.72" fill="#b74100" fill-rule="evenodd" stroke="#b74100" stroke-width="0.72" stroke-linecap="square" stroke-linejoin="bevel"/><ellipse id="shape03" transform="matrix(0.999999987608374 0 0 0.999999975397958 1.94240952324776 7.68829311858725)" rx="0.720000000000001" ry="0.72" cx="0.720000000000001" cy="0.72" fill="#b74100" fill-rule="evenodd" stroke="#b74100" stroke-width="0.72" stroke-linecap="square" stroke-linejoin="bevel"/><ellipse id="shape04" transform="matrix(0.999999970684113 0 0 -0.999999968664061 18.8624905034577 12.0758403323585)" rx="0.720000000000001" ry="0.72" cx="0.720000000000001" cy="0.72" fill="#b74100" fill-rule="evenodd" stroke="#b74100" stroke-width="0.72" stroke-linecap="square" stroke-linejoin="bevel"/><ellipse id="shape01" transform="matrix(0.999999970684113 0 0 -0.999999968664061 24.4892840023255 9.30178336074487)" rx="0.720000000000001" ry="0.72" cx="0.720000000000001" cy="0.72" fill="#b74100" fill-rule="evenodd" stroke="#b74100" stroke-width="0.72" stroke-linecap="square" stroke-linejoin="bevel"/><ellipse id="shape02" transform="matrix(0.999999970684113 0 0 -0.999999968664061 21.8101844916743 10.8131440798483)" rx="0.720000000000001" ry="0.72" cx="0.720000000000001" cy="0.72" fill="#b74100" fill-rule="evenodd" stroke="#b74100" stroke-width="0.72" stroke-linecap="square" stroke-linejoin="bevel"/><ellipse id="shape03" transform="matrix(0.999999970684113 0 0 -0.999999968664061 16.2092834562684 13.4867837228766)" rx="0.720000000000001" ry="0.72" cx="0.720000000000001" cy="0.72" fill="#b74100" fill-rule="evenodd" stroke="#b74100" stroke-width="0.72" stroke-linecap="square" stroke-linejoin="bevel"/>
</svg>
