<?xml version="1.0" standalone="no"?>
<!DOCTYPE svg PUBLIC "-//W3C//DTD SVG 20010904//EN" "http://www.w3.org/TR/2001/REC-SVG-20010904/DTD/svg10.dtd">
<!-- Created using Krita: http://krita.org -->
<svg xmlns="http://www.w3.org/2000/svg" 
    xmlns:xlink="http://www.w3.org/1999/xlink"
    xmlns:krita="http://krita.org/namespaces/svg/krita"
    xmlns:sodipodi="http://sodipodi.sourceforge.net/DTD/sodipodi-0.dtd"
    width="28.08pt"
    height="15.12pt"
    viewBox="0 0 28.08 15.12">
<defs/>
<circle id="shape0" transform="translate(12.96, 12.1949999936566)" r="1.08" cx="1.08" cy="1.08" fill="#d7980b" fill-rule="evenodd" stroke="#d7980b" stroke-width="0.72" stroke-linecap="square" stroke-linejoin="bevel"/><circle id="shape0" transform="matrix(1.00000000986069 0 0 0.999999969306061 15.7697637900192 9.78476314805978)" r="1.08" cx="1.08" cy="1.08" fill="#d7980b" stroke="#d7980b" stroke-width="0.72" stroke-linecap="square" stroke-linejoin="bevel"/><circle id="shape01" transform="matrix(1.00000000986069 0 0 0.999999969306061 18.5147638127808 7.30976312753703)" r="1.08" cx="1.08" cy="1.08" fill="#d7980b" stroke="#d7980b" stroke-width="0.72" stroke-linecap="square" stroke-linejoin="bevel"/><circle id="shape02" transform="matrix(1.00000000986069 0 0 0.999999969306061 21.5747638381544 5.19476310999941)" r="1.08" cx="1.08" cy="1.08" fill="#d7980b" stroke="#d7980b" stroke-width="0.72" stroke-linecap="square" stroke-linejoin="bevel"/><circle id="shape03" transform="matrix(1.00000000986069 0 0 0.999999969306061 24.4997638624085 2.89976309096922)" r="1.08" cx="1.08" cy="1.08" fill="#d7980b" stroke="#d7980b" stroke-width="0.72" stroke-linecap="square" stroke-linejoin="bevel"/><circle id="shape04" transform="matrix(1.00000000986069 0 0 0.999999969306061 10.0997637430034 9.91976314917921)" r="1.08" cx="1.08" cy="1.08" fill="#d7980b" stroke="#d7980b" stroke-width="0.72" stroke-linecap="square" stroke-linejoin="bevel"/><circle id="shape05" transform="matrix(1.00000000986069 0 0 0.999999969306061 7.12976371837612 7.7147631308953)" r="1.08" cx="1.08" cy="1.08" fill="#d7980b" stroke="#d7980b" stroke-width="0.72" stroke-linecap="square" stroke-linejoin="bevel"/><circle id="shape06" transform="matrix(1.00000000986069 0 0 0.999999969306061 4.20476369412197 5.59976311335768)" r="1.08" cx="1.08" cy="1.08" fill="#d7980b" stroke="#d7980b" stroke-width="0.72" stroke-linecap="square" stroke-linejoin="bevel"/><circle id="shape07" transform="matrix(1.00000000986069 0 0 0.999999969306061 1.32476367024095 3.43976309544691)" r="1.08" cx="1.08" cy="1.08" fill="#d7980b" stroke="#d7980b" stroke-width="0.72" stroke-linecap="square" stroke-linejoin="bevel"/>
</svg>
