<?xml version="1.0" standalone="no"?>
<!DOCTYPE svg PUBLIC "-//W3C//DTD SVG 20010904//EN" "http://www.w3.org/TR/2001/REC-SVG-20010904/DTD/svg10.dtd">
<!-- Created using Krita: http://krita.org -->
<svg xmlns="http://www.w3.org/2000/svg" 
    xmlns:xlink="http://www.w3.org/1999/xlink"
    xmlns:krita="http://krita.org/namespaces/svg/krita"
    xmlns:sodipodi="http://sodipodi.sourceforge.net/DTD/sodipodi-0.dtd"
    width="28.08pt"
    height="15.12pt"
    viewBox="0 0 28.08 15.12">
<defs/>
<ellipse id="shape0" transform="matrix(1.00000000271702 0 0 1.00000000756884 13.3200000361907 13.2463783499159)" rx="0.720000000000001" ry="0.72" cx="0.720000000000001" cy="0.72" fill="#b74100" fill-rule="evenodd" stroke="#f2fc24" stroke-width="0.72" stroke-linecap="square" stroke-linejoin="bevel"/><ellipse id="shape01" transform="matrix(0.999999990325395 0 0 0.999999982966802 4.59561662782699 9.09923658747719)" rx="0.720000000000001" ry="0.72" cx="0.720000000000001" cy="0.72" fill="#b74100" fill-rule="evenodd" stroke="#f2fc24" stroke-width="0.72" stroke-linecap="square" stroke-linejoin="bevel"/><ellipse id="shape01" transform="matrix(0.999999990325395 0 0 0.999999982966802 10.2224102372123 11.8732935987674)" rx="0.720000000000001" ry="0.72" cx="0.720000000000001" cy="0.72" fill="#b74100" fill-rule="evenodd" stroke="#f2fc24" stroke-width="0.72" stroke-linecap="square" stroke-linejoin="bevel"/><ellipse id="shape02" transform="matrix(0.999999990325395 0 0 0.999999982966802 7.5433106739401 10.3619328580474)" rx="0.720000000000001" ry="0.72" cx="0.720000000000001" cy="0.72" fill="#b74100" fill-rule="evenodd" stroke="#f2fc24" stroke-width="0.72" stroke-linecap="square" stroke-linejoin="bevel"/><ellipse id="shape03" transform="matrix(0.999999990325395 0 0 0.999999982966802 1.94240952852533 7.68829317677874)" rx="0.720000000000001" ry="0.72" cx="0.720000000000001" cy="0.72" fill="#b74100" fill-rule="evenodd" stroke="#f2fc24" stroke-width="0.72" stroke-linecap="square" stroke-linejoin="bevel"/><ellipse id="shape04" transform="matrix(0.999999973401134 0 0 -0.999999976232905 18.8624905547075 12.0758404237586)" rx="0.720000000000001" ry="0.72" cx="0.720000000000001" cy="0.72" fill="#b74100" fill-rule="evenodd" stroke="#f2fc24" stroke-width="0.72" stroke-linecap="square" stroke-linejoin="bevel"/><ellipse id="shape011" transform="matrix(0.999999973401134 0 0 -0.999999976232905 24.4892840688634 9.30178343114862)" rx="0.720000000000001" ry="0.72" cx="0.720000000000001" cy="0.72" fill="#b74100" fill-rule="evenodd" stroke="#f2fc24" stroke-width="0.72" stroke-linecap="square" stroke-linejoin="bevel"/><ellipse id="shape021" transform="matrix(0.999999973401134 0 0 -0.999999976232905 21.810184550933 10.8131441616913)" rx="0.720000000000001" ry="0.72" cx="0.720000000000001" cy="0.72" fill="#b74100" fill-rule="evenodd" stroke="#f2fc24" stroke-width="0.72" stroke-linecap="square" stroke-linejoin="bevel"/><ellipse id="shape031" transform="matrix(0.999999973401134 0 0 -0.999999976232905 16.2092835003094 13.486783824956)" rx="0.720000000000001" ry="0.72" cx="0.720000000000001" cy="0.72" fill="#b74100" fill-rule="evenodd" stroke="#f2fc24" stroke-width="0.72" stroke-linecap="square" stroke-linejoin="bevel"/>
</svg>
